<?xml version="1.0" encoding="UTF-8" standalone="no"?>
<svg
   xmlns:dc="http://purl.org/dc/elements/1.1/"
   xmlns:cc="http://creativecommons.org/ns#"
   xmlns:rdf="http://www.w3.org/1999/02/22-rdf-syntax-ns#"
   xmlns:svg="http://www.w3.org/2000/svg"
   xmlns="http://www.w3.org/2000/svg"
   version="1.1"
   id="svg2"
   viewBox="0 0 192 195.42859"
   height="195.42857"
   width="192">
  <defs
     id="defs4" />
  <metadata
     id="metadata7">
    <rdf:RDF>
      <cc:Work
         rdf:about="">
        <dc:format>image/svg+xml</dc:format>
        <dc:type
           rdf:resource="http://purl.org/dc/dcmitype/StillImage" />
        <dc:title></dc:title>
      </cc:Work>
    </rdf:RDF>
  </metadata>
  <g
     transform="translate(13.714235,-725.4336)"
     id="layer1">
    <g
       transform="matrix(3.4285718,0,0,3.4285718,-27.428537,711.71931)"
       id="g3354">
      <path
         style="fill:#47ad5d"
         d="m 31.999456,4.0003014 c -0.674201,0 -1.3395,0.03288 -2.00154,0.0793 -0.08308,0.0062 -0.165799,0.0122 -0.248813,0.0192 C 19.746601,4.8882128 11.276254,10.893496 6.9957817,19.406017 c -9.466e-4,0.0018 -0.00179,0.0036 -0.00274,0.0054 -0.2768917,0.551087 -0.5602832,1.099335 -0.801156,1.670724 -1.310721,2.96004 -2.0225397,6.101286 -2.1519358,9.389931 -0.00566,0.106239 -0.00644,0.213363 -0.01094,0.319924 -0.00866,0.314164 -0.02672,0.626549 -0.02461,0.943373 2e-4,0.09 -0.0044,0.175999 -0.0044,0.266005 0,3.255845 0.5786428,6.365089 1.5913525,9.26693 0.4075679,1.300919 0.8771339,2.614638 1.4437169,3.945855 1.4112379,3.315647 1.5864728,4.21966 1.3644193,6.9891 -0.1547272,1.929746 -0.6777599,3.900053 -1.3316003,5.00947 -0.5927823,1.004014 -1.067968,2.042029 -1.067968,2.306032 0,0.816991 4.7186597,0.530967 8.8961347,-0.538687 4.894054,-1.253078 5.321842,-1.251138 9.334923,0.0082 1.835804,0.576089 3.930681,0.887774 6.294411,0.973455 0.09888,0.005 0.198899,0.0042 0.298031,0.0082 0.323472,0.0088 0.633782,0.03008 0.967933,0.03008 0.02718,0 0.05216,-0.0026 0.0793,-0.0028 0.0431,1.92e-4 0.08538,0.0028 0.12852,0.0028 0.781855,0 1.553393,-0.03894 2.318729,-0.101179 6.921994,-0.492288 12.48183,-3.054242 17.48588,-8.050114 4.122676,-4.116057 6.676401,-9.197129 7.68617,-14.514205 0.09302,-0.485925 0.170159,-0.976453 0.237872,-1.47112 0.04094,-0.303665 0.08396,-0.605909 0.11484,-0.910554 0.06788,-0.653348 0.108699,-1.316237 0.131259,-1.982447 0.005,-0.167879 0.0118,-0.335165 0.0138,-0.503126 0.004,-0.153999 0.012,-0.310004 0.012,-0.466007 0,-15.253415 -12.077639,-27.5743888 -27.227189,-27.9803947 -0.117659,-0.0034 -0.235032,-0.0064 -0.352728,-0.0082 -0.141999,-0.003 -0.279992,-0.0118 -0.419987,-0.0118 z"
         id="path3338" />
      <path
         style="opacity:0.2;fill:#ffffff"
         d="m 32,4 c -0.673996,0 -1.338004,0.031645 -2,0.078125 -0.084,0.006 -0.166,0.012731 -0.25,0.019531 -10.002348,0.7907737 -18.474129,6.80872 -22.7539062,15.335938 l -0.00391,0.0039 c -0.2769985,0.551959 -0.5599823,1.102786 -0.8007813,1.675781 -1.3107931,2.965153 -2.0229444,6.112527 -2.1523437,9.40625 -0.0056,0.106199 -0.00321,0.214127 -0.00781,0.320313 -0.0086,0.31659 -0.029544,0.626807 -0.027344,0.943359 C 4.0029062,31.873363 4,31.95868 4,32.048828 c 0,0.119641 0.00907,0.23748 0.015625,0.355469 0.00634,-0.187674 0.010479,-0.375031 0.015625,-0.564453 0.0046,-0.106186 0.00221,-0.214114 0.00781,-0.320313 0.1293993,-3.293723 0.8415506,-6.441097 2.1523437,-9.40625 C 6.4322051,21.540286 6.715189,20.989459 6.9921875,20.4375 l 0.00391,-0.0039 C 11.275871,11.906376 19.747652,5.8884296 29.75,5.0976562 29.834,5.0908562 29.916,5.084125 30,5.078125 30.661996,5.031645 31.326004,5 32,5 c 0.14,0 0.27797,0.0095 0.417969,0.011719 0.118,0.0018 0.233563,0.00401 0.351562,0.00781 14.983024,0.4022256 26.956608,12.481197 27.21875,27.527344 1.31e-4,-0.0098 -1.16e-4,-0.01948 0,-0.0293 C 59.990281,32.361303 60,32.205099 60,32.048828 60,16.769275 47.919453,4.4262371 32.769531,4.0195312 32.651532,4.0157312 32.535969,4.0135188 32.417969,4.0117188 32.27797,4.0094987 32.14,4 32,4 Z M 8.4179688,51.873047 c -0.01,0.148266 -0.00673,0.255739 -0.019531,0.416015 C 8.2438383,54.220419 7.720203,56.192806 7.0664062,57.302734 6.4736092,58.310485 6,59.35273 6,59.617188 6,59.803511 6.2705273,59.925873 6.703125,60 c 0.1241994,-0.234407 0.2202821,-0.448934 0.3632812,-0.693359 0.025027,-0.04249 0.045681,-0.105425 0.070313,-0.150391 0.087285,-0.2251 0.2379559,-0.52403 0.3945312,-0.837891 0.4289817,-1.112974 0.7514808,-2.579905 0.8671875,-4.02539 0.0784,-0.979703 0.077131,-1.718701 0.019531,-2.419922 z"
         id="path3340" />
      <path
         style="opacity:0.2"
         d="m 4.0117188,32.5 c -0.00192,0.08146 -0.00836,0.161904 -0.00781,0.244041 C 4.0031063,32.834004 4,32.921547 4,33.011509 c 0,3.254444 0.577109,6.361224 1.5898438,9.261816 0.4075778,1.300359 0.8787154,2.613045 1.4453124,3.943692 0.9129153,2.143907 1.2772931,3.292377 1.3828126,4.576242 0.047808,-0.708348 0.057058,-1.295065 0.021484,-1.852753 -0.00662,0.279953 1.535e-4,0.532569 -0.021484,0.853164 C 8.3124493,48.509805 7.9480715,47.361335 7.0351562,45.217428 6.4685592,43.886781 5.9974216,42.574095 5.5898438,41.273736 4.6280736,38.519113 4.0665389,35.576408 4.0117188,32.5 Z m 55.9707032,0.1679 c -0.0023,0.103804 -0.0047,0.207497 -0.0078,0.312372 -0.02256,0.665943 -0.06493,1.33049 -0.132812,1.983559 -0.03088,0.304513 -0.07234,0.606249 -0.113281,0.909782 -0.06774,0.494454 -0.145262,0.986333 -0.238282,1.472051 -1.009795,5.314786 -3.564722,10.391468 -7.6875,14.505754 -5.004187,4.99372 -10.562224,7.555397 -17.484388,8.047473 -0.765376,0.06221 -1.538437,0.10152 -2.320312,0.10152 -0.044,0 -0.08491,-0.0039 -0.128906,-0.0039 -0.02714,2e-4 -0.05094,0.0039 -0.07813,0.0039 -0.334179,0 -0.645271,-0.02244 -0.96875,-0.03124 -0.09916,-0.004 -0.197995,-0.0028 -0.296875,-0.0078 -2.363588,-0.08564 -4.461025,-0.396417 -6.296875,-0.972257 -4.013179,-1.258796 -4.441763,-1.260347 -9.335938,-0.0078 -3.607424,0.92321 -7.6014351,1.258529 -8.6289061,0.808261 -0.1553756,0.339396 -0.265625,0.618036 -0.265625,0.730168 0,0.816641 4.7167531,0.530335 8.8945311,-0.53884 4.894175,-1.252538 5.322759,-1.250987 9.335938,0.0078 1.83585,0.57584 3.933287,0.886611 6.296875,0.972257 0.09888,0.005 0.197715,0.0038 0.296875,0.0078 C 31.14574,60.97756 31.456832,61 31.791011,61 c 0.02718,0 0.05099,-0.0037 0.07813,-0.0039 0.044,0 0.08491,0.0039 0.128906,0.0039 0.781875,0 1.554936,-0.0393 2.320312,-0.10152 6.922164,-0.492076 12.480201,-3.053753 17.484375,-8.047473 4.122778,-4.114286 6.677705,-9.190968 7.6875,-14.505754 0.09302,-0.485718 0.170543,-0.977597 0.238282,-1.472051 0.04094,-0.303533 0.0824,-0.605269 0.113281,-0.909782 0.06788,-0.653069 0.110252,-1.317616 0.132812,-1.98356 0.005,-0.16781 0.01167,-0.331904 0.01367,-0.499794 C 59.990281,33.322132 60,33.165492 60,33.009556 60,32.894222 59.98971,32.781361 59.98242,32.6679 Z"
         id="path3342" />
      <path
         style="opacity:0.2;fill:#000000;fill-opacity:1;enable-background:new"
         d="m 42.501273,45.331619 c 2.099033,-1.00243 3.074917,-2.26015 3.411421,-4.39661 0.256452,-1.62821 0.138182,-2.04476 -3.054911,-3.58214 -4.06,-1.95482 -3.809721,-1.96415 -5.558755,0.20739 -1.088514,1.35145 -1.556254,1.78993 -1.909502,1.78993 -4.137549,-1.11868 -8.347537,-4.35011 -9.686543,-8.5936 0,-0.1817 0.440383,-0.8465 0.978656,-1.47732 1.582699,-1.8548 1.584435,-1.90025 0.20258,-5.30473 -1.590819,-3.91937 -2.12892,-3.89276 -3.861981,-3.96445 -1.773547,-0.0733 -2.334009,0.20856 -3.456149,1.7384 -1.160979,1.5828 -1.57549,2.85611 -1.565928,4.81028 0.0126,2.48027 0.825412,4.47174 3.179496,7.78576 4.04124,5.68913 7.984114,8.77695 13.664444,10.70113 3.47407,1.17685 5.6237,1.25712 7.657172,0.28596 z"
         id="path3344" />
      <path
         d="m 42.501273,44.331841 c 2.099033,-1.002433 3.074917,-2.260154 3.411421,-4.396614 0.256452,-1.628209 0.138182,-2.044762 -3.054911,-3.582134 -4.06,-1.954828 -3.809721,-1.964158 -5.558755,0.20739 -1.088514,1.35145 -1.556254,1.78993 -1.909502,1.78993 -4.137549,-1.118683 -8.347537,-4.350119 -9.686543,-8.593602 0,-0.181703 0.440383,-0.846498 0.978656,-1.477319 1.582699,-1.854803 1.584435,-1.900255 0.20258,-5.304738 -1.590819,-3.91937 -2.12892,-3.892756 -3.861981,-3.964445 -1.773547,-0.07334 -2.334009,0.208556 -3.456149,1.738395 -1.160979,1.582809 -1.57549,2.856112 -1.565928,4.810281 0.0126,2.480269 0.825412,4.471743 3.179496,7.785766 4.04124,5.689125 7.984114,8.776943 13.664444,10.701129 3.47407,1.176845 5.6237,1.257117 7.657172,0.285961 z"
         style="fill:#ffffff;fill-opacity:1;enable-background:new"
         id="path3346" />
    </g>
  </g>
</svg>
